# xmcd
#
# Track frame offsets:
#	150
#	13193
#	25276
#	40245
#	51832
#	70951
#	83519
#	97933
#	112430
#	127822
#	138270
#	149640
#	161927
#	174857
#	189981
#	202221
#	211643
#	230377
#	241909
#	255134
#
# Disc length: 3538 seconds
#
# Revision: 3
# Processed by: cddbd v1.5.2PL0 Copyright (c) Steve Scherf et al.
# Submitted via: VUPlayer 2.49
#
DISCID=120dd014
DTITLE=Various Artist - That's Country CD-1
DYEAR=2002
DGENRE=Country
TTITLE0=Don Williams - Goodbye isn't Really Good At All
TTITLE1=Ronnie McDowell - Burning Bridges
TTITLE2=Don Williams - Don't You Think it's Time
TTITLE3=Dolly Parton - Making Believe
TTITLE4=Tina Turner - Lovin'Him Was Easier
TTITLE5=Carl Perkins - Take Me Back
TTITLE6=Freddy Fender - Jambalaya
TTITLE7=Eddie Raven - Who Do You Know in California
TTITLE8=Bonnie Taylor - You've Got To Hide Your Love Away
TTITLE9=Willie Nelson - Blame it On the Times
TTITLE10=Mickey Gilley - Blaze of Glory
TTITLE11=Willie Nelson - Shelter of My Arms
TTITLE12=Freddy Fender - Just Because
TTITLE13=Gene Watson - Carmen
TTITLE14=Nitty Gritty Dirt Band - High Horse
TTITLE15=Johnny Paycheck - The Race is On
TTITLE16=T. G. Sheppard - Without You
TTITLE17=Johnny Paycheck - Take This Job and Shove it
TTITLE18=Jennifer Wheatherly - No One Has To Tell You
TTITLE19=Kenny Rogers - Good Time Liberator
EXTD=Disk 1 of 5
EXTT0=
EXTT1=
EXTT2=
EXTT3=
EXTT4=
EXTT5=
EXTT6=
EXTT7=
EXTT8=
EXTT9=
EXTT10=
EXTT11=
EXTT12=
EXTT13=
EXTT14=
EXTT15=
EXTT16=
EXTT17=
EXTT18=
EXTT19=
PLAYORDER=
